<svg width="40" height="24" viewBox="0 0 40 24" fill="none" xmlns="http://www.w3.org/2000/svg">
<g clip-path="url(#clip0_2061_78)">
<path d="M11.3114 8.66192C11.3114 9.15207 11.3645 9.5494 11.4572 9.8408C11.5748 10.1686 11.7164 10.4874 11.8809 10.7944C11.9472 10.9003 11.9736 11.0063 11.9736 11.0991C11.9736 11.2314 11.8942 11.3639 11.722 11.4964L10.8876 12.0526C10.7684 12.1322 10.6492 12.1719 10.5431 12.1719C10.4108 12.1719 10.2783 12.1056 10.1458 11.9864C9.96718 11.7947 9.80753 11.5863 9.66907 11.3639C9.53657 11.1389 9.40407 10.887 9.25845 10.5825C8.22524 11.8009 6.92725 12.4102 5.36447 12.4103C4.25199 12.4103 3.3645 12.0923 2.71545 11.4567C2.06656 10.8208 1.73547 9.97315 1.73547 8.91363C1.73547 7.78788 2.13281 6.87399 2.94076 6.18525C3.74856 5.49651 4.82151 5.15215 6.1857 5.15215C6.636 5.15215 7.09959 5.19183 7.58958 5.25808C8.07973 5.32433 8.583 5.43027 9.11283 5.54948V4.58263C9.11283 3.57593 8.9008 2.87407 8.49019 2.46345C8.06644 2.05283 7.35115 1.85409 6.33132 1.85409C5.86774 1.85409 5.39103 1.90721 4.90088 2.02643C4.41073 2.14564 3.93402 2.29126 3.47044 2.47673C3.25857 2.56938 3.09967 2.62235 3.00686 2.64891C2.91404 2.67548 2.84795 2.6886 2.79498 2.6886C2.60952 2.6886 2.51686 2.5561 2.51686 2.27798V1.62893C2.51686 1.41706 2.54343 1.25816 2.60952 1.1655C2.67577 1.07269 2.79498 0.98004 2.98045 0.887385C3.44398 0.648848 4.00022 0.450154 4.64917 0.291303C5.29837 0.119119 5.98711 0.0397456 6.71553 0.0397456C8.29175 0.0397456 9.44407 0.397239 10.1858 1.11254C10.9142 1.82768 11.2851 2.91375 11.2851 4.37075V8.66192H11.3114ZM5.93399 10.6752C6.37117 10.6752 6.82147 10.5958 7.29818 10.4367C7.77504 10.2778 8.19894 9.98643 8.55643 9.58909C8.76846 9.33753 8.92736 9.05941 9.00674 8.74145C9.08627 8.42364 9.13924 8.03943 9.13924 7.58913V7.03289C8.73756 6.93519 8.33073 6.86003 7.92067 6.80774C7.50773 6.75534 7.09193 6.72878 6.67569 6.72821C5.78821 6.72821 5.13931 6.90039 4.70229 7.25804C4.26527 7.61569 4.05324 8.11896 4.05324 8.78114C4.05324 9.40363 4.21214 9.86721 4.54323 10.1852C4.86119 10.5163 5.32478 10.6752 5.93399 10.6752ZM16.5696 12.1056C16.3311 12.1056 16.1722 12.0659 16.0663 11.9731C15.9604 11.8937 15.8675 11.7083 15.7882 11.4567L12.6757 1.21847C12.596 0.953478 12.5564 0.781294 12.5564 0.688639C12.5564 0.476768 12.6623 0.357396 12.8743 0.357396H14.1723C14.4238 0.357396 14.5962 0.397239 14.6888 0.489893C14.7948 0.569423 14.8743 0.754888 14.9537 1.00645L17.1788 9.77456L19.245 1.00645C19.3112 0.741607 19.3908 0.569423 19.4965 0.489893C19.6026 0.41052 19.7881 0.357552 20.0265 0.357552H21.086C21.3376 0.357552 21.5099 0.397239 21.6157 0.489893C21.7218 0.569423 21.8145 0.754888 21.8674 1.00645L23.9602 9.88049L26.2514 1.00645C26.3308 0.741607 26.4236 0.569423 26.5162 0.489893C26.6222 0.41052 26.7944 0.357552 27.0328 0.357552H28.2645C28.4765 0.357552 28.5957 0.463487 28.5957 0.688639C28.5957 0.754888 28.5825 0.821137 28.5692 0.90051C28.5559 0.979883 28.5295 1.08598 28.4765 1.23175L25.2844 11.4698C25.205 11.7348 25.1123 11.907 25.0063 11.9864C24.9003 12.0659 24.7282 12.1189 24.5032 12.1189H23.3641C23.1124 12.1189 22.9402 12.0792 22.8341 11.9864C22.7282 11.8937 22.6355 11.7215 22.5826 11.4567L20.5295 2.91375L18.4898 11.4433C18.4237 11.7083 18.3442 11.8805 18.2383 11.9731C18.1323 12.0659 17.9469 12.1056 17.7086 12.1056H16.5696ZM33.5891 12.4633C32.9003 12.4633 32.2116 12.3837 31.5494 12.2248C30.8871 12.0659 30.3707 11.8936 30.0263 11.6951C29.8143 11.5758 29.6685 11.4434 29.6157 11.3242C29.5642 11.2073 29.5371 11.0811 29.5362 10.9533V10.2778C29.5362 9.99971 29.6421 9.86721 29.8409 9.86721C29.922 9.86751 30.0025 9.88097 30.0793 9.90705C30.1587 9.93362 30.2779 9.98643 30.4104 10.0394C30.8781 10.2453 31.3665 10.4007 31.8672 10.503C32.3861 10.6082 32.9141 10.6614 33.4435 10.6619C34.2778 10.6619 34.9269 10.5163 35.3772 10.2249C35.8275 9.93346 36.0659 9.50972 36.0659 8.9666C36.0659 8.59583 35.9467 8.29115 35.7083 8.03943C35.4698 7.78772 35.0195 7.56272 34.3706 7.3507L32.45 6.75477C31.4832 6.45009 30.768 5.99979 30.3309 5.4037C29.8938 4.8209 29.6687 4.17201 29.6687 3.48327C29.6687 2.92703 29.7879 2.43694 30.0263 2.01299C30.2646 1.58925 30.5826 1.21847 30.9799 0.927072C31.3772 0.62239 31.8275 0.397239 32.3574 0.238335C32.8871 0.0794323 33.4433 0.0131836 34.0261 0.0131836C34.3175 0.0131836 34.6222 0.0264646 34.9136 0.0661513C35.2183 0.105838 35.4964 0.158806 35.7745 0.211773C36.0393 0.278022 36.2911 0.344271 36.5295 0.423801C36.7678 0.503174 36.9532 0.5826 37.0857 0.662077C37.2712 0.768169 37.4035 0.874104 37.4831 0.993321C37.5625 1.09926 37.6023 1.24493 37.6023 1.43034V2.05283C37.6023 2.33095 37.4963 2.47673 37.2976 2.47673C37.1917 2.47673 37.0195 2.42361 36.7945 2.31767C36.0393 1.9733 35.1916 1.80112 34.2514 1.80112C33.4964 1.80112 32.9003 1.92033 32.4897 2.17205C32.0793 2.42361 31.8672 2.80782 31.8672 3.35077C31.8672 3.7217 31.9997 4.03951 32.2646 4.29123C32.5294 4.54294 33.0196 4.7945 33.7216 5.01965L35.6023 5.61573C36.5559 5.92041 37.2446 6.34415 37.6552 6.88711C38.0659 7.43007 38.2646 8.05271 38.2646 8.74145C38.2646 9.31097 38.1452 9.82752 37.9201 10.2778C37.6818 10.7281 37.3638 11.1255 36.9532 11.4434C36.5426 11.7745 36.0526 12.0129 35.4831 12.1851C34.887 12.3706 34.2645 12.4633 33.5891 12.4633Z" fill="#252F3E"/>
<path d="M36.0923 18.9003C31.7349 22.1188 25.4037 23.8274 19.9603 23.8274C12.3312 23.8274 5.45726 21.0062 0.265328 16.3175C-0.145289 15.9467 0.225485 15.4435 0.715476 15.7347C6.3313 18.9931 13.2584 20.9665 20.4238 20.9665C25.2581 20.9665 30.5693 19.9599 35.4567 17.8937C36.1851 17.5625 36.8076 18.3706 36.0923 18.9003ZM37.9069 16.8341C37.3507 16.1189 34.2248 16.4897 32.8077 16.6619C32.3838 16.715 32.3175 16.3441 32.7017 16.066C35.1917 14.3176 39.2844 14.821 39.7611 15.4036C40.238 15.9997 39.6286 20.0923 37.2976 22.0526C36.9401 22.3572 36.5957 22.1983 36.7546 21.801C37.2843 20.4896 38.4632 17.5361 37.9069 16.8341Z" fill="#FF9900"/>
</g>
<defs>
<clipPath id="clip0_2061_78">
<rect width="40" height="23.9058" fill="white"/>
</clipPath>
</defs>
</svg>
