<svg width="32" height="32" viewBox="0 0 32 32" fill="none" xmlns="http://www.w3.org/2000/svg">
<path d="M32 21.5C32 24.5375 30.3135 27 27 27H5C1.6865 27 0 24.5375 0 21.5V10.5C0 7.4625 1.6865 5 5 5H27C30.3135 5 32 7.4625 32 10.5V21.5Z" fill="#128807"/>
<path d="M28.5701 16.395L16.0751 25.175L3.57959 16.395L16.0751 7.61499L28.5701 16.395Z" fill="#F9CB38"/>
<path fill-rule="evenodd" clip-rule="evenodd" d="M21.0051 17.924C20.4361 19.8575 18.6556 21.3295 16.6396 21.5295C13.9461 21.799 11.5896 20.087 11.0166 17.4405C10.8469 16.6628 10.8686 15.8555 11.0796 15.088C11.1581 15.003 11.2666 14.9825 11.3746 14.9675C12.1623 14.8574 12.9587 14.8227 13.7531 14.864C14.6006 14.912 15.4411 15.0295 16.2581 15.2605C17.0966 15.498 17.9086 15.808 18.6751 16.22C19.252 16.5262 19.803 16.8791 20.3226 17.275C20.4986 17.4115 20.6781 17.5455 20.8471 17.691C20.9226 17.756 20.9821 17.826 21.0051 17.924Z" fill="#002776"/>
<path fill-rule="evenodd" clip-rule="evenodd" d="M11.3621 14.3054C12.0076 12.8629 13.0961 11.9024 14.6006 11.4514C17.6306 10.5429 20.7391 12.5454 21.1896 15.6684C21.2596 16.1509 21.2626 16.6349 21.1886 17.1184C21.1121 17.1469 21.0551 17.1064 21.0026 17.0629C20.4534 16.6142 19.8675 16.2125 19.2511 15.8619C18.7764 15.5925 18.2831 15.3573 17.7751 15.1579C17.6851 15.1224 17.5721 15.1039 17.5411 14.9834C17.5736 14.9254 17.6146 14.8749 17.6636 14.8279C17.6811 14.8099 17.7066 14.7924 17.6831 14.7624C17.6751 14.7529 17.6586 14.7529 17.6446 14.7544C17.6071 14.7584 17.6121 14.7844 17.6136 14.8119C17.6166 14.9014 17.5646 14.9589 17.4961 15.0049C17.3746 15.0324 17.2581 14.9959 17.1596 14.9434C16.8776 14.7954 16.5656 14.7449 16.2671 14.6624C15.8016 14.5359 15.3236 14.4644 14.8466 14.3899C14.4659 14.3293 14.0826 14.2856 13.6981 14.2589C13.3481 14.2344 12.9916 14.2379 12.6391 14.2619C12.2546 14.2889 11.8691 14.3159 11.4866 14.3619C11.4626 14.3656 11.438 14.3623 11.4159 14.3522C11.3938 14.3422 11.3751 14.3259 11.3621 14.3054Z" fill="#002776"/>
<path fill-rule="evenodd" clip-rule="evenodd" d="M17.5451 14.9525C17.5431 15.0135 17.5976 15.0055 17.6306 15.0185C18.9218 15.5207 20.1226 16.23 21.1856 17.1185C21.1551 17.3928 21.0944 17.6629 21.0046 17.924C20.3791 17.405 19.7386 16.9105 19.0301 16.5065C16.7906 15.231 14.3926 14.7255 11.8291 14.9965C11.5791 15.022 11.3291 15.056 11.0791 15.0865C11.1436 14.816 11.2256 14.5505 11.3601 14.3045C13.2316 14.052 15.0706 14.1955 16.8751 14.754C17.0991 14.8235 17.3126 14.9355 17.5516 14.9565L17.5451 14.951" fill="#FEFEFE"/>
<path fill-rule="evenodd" clip-rule="evenodd" d="M19.875 18.1749C19.7245 18.1589 19.888 18.3434 19.736 18.3394C19.6035 18.3374 19.5965 18.2314 19.5315 18.1724C19.5815 18.1204 19.67 18.1099 19.698 18.0289C19.717 18.1144 19.7975 18.1324 19.875 18.1749Z" fill="#D9DFEA"/>
<path fill-rule="evenodd" clip-rule="evenodd" d="M14.197 19.0999C14.0555 19.1164 14.174 19.2704 14.0555 19.2729C13.936 19.2754 13.8745 19.1869 13.8505 19.0954C13.842 19.0694 13.957 19.0114 14.0135 18.9684C14.0205 19.0589 14.1145 19.0549 14.197 19.0999Z" fill="#E9ECF3"/>
<path fill-rule="evenodd" clip-rule="evenodd" d="M16.07 18.8214C15.8735 18.9484 16.032 18.6614 15.9165 18.6894C15.954 18.6294 16.06 18.6434 16.067 18.5514C16.117 18.6034 16.1595 18.6634 16.239 18.6744C16.1255 18.6589 16.249 18.9109 16.07 18.8214Z" fill="#EDEFF5"/>
<path fill-rule="evenodd" clip-rule="evenodd" d="M12.0101 15.4524C11.9631 15.5419 11.9276 15.6419 11.7851 15.5819C11.7121 15.5514 11.7901 15.4514 11.7026 15.4419L11.8646 15.2994L11.8996 15.3689C11.9126 15.4284 12.0311 15.3494 12.0101 15.4524Z" fill="#F0F2F6"/>
<path fill-rule="evenodd" clip-rule="evenodd" d="M12.4634 17.6249C12.3889 17.6484 12.4424 17.8444 12.2824 17.7589C12.2664 17.7509 12.1964 17.7894 12.2094 17.7669C12.2514 17.6849 12.1574 17.6449 12.1719 17.5794C12.2594 17.6174 12.2544 17.4574 12.3439 17.5004C12.3504 17.5054 12.3504 17.5254 12.3549 17.5384C12.3644 17.6004 12.4854 17.5229 12.4634 17.6249Z" fill="#ECEFF4"/>
<path fill-rule="evenodd" clip-rule="evenodd" d="M11.677 18.204C11.5235 18.2575 11.638 18.072 11.55 18.0735C11.591 18.039 11.637 17.9745 11.678 17.977C11.727 17.9795 11.772 18.04 11.817 18.0745C11.75 18.097 11.8205 18.2785 11.677 18.204Z" fill="#D9DFEA"/>
<path fill-rule="evenodd" clip-rule="evenodd" d="M17.61 19.9734C17.4475 20.0474 17.6055 19.829 17.497 19.8575C17.486 19.774 17.6215 19.8245 17.6045 19.7365L17.751 19.854C17.6915 19.881 17.751 20.0509 17.61 19.9734Z" fill="#D8DEEA"/>
<path fill-rule="evenodd" clip-rule="evenodd" d="M18.6501 19.8529C18.5156 19.9089 18.5981 19.7279 18.5256 19.7099C18.5746 19.6784 18.6261 19.6449 18.6741 19.6124C18.6781 19.6864 18.7796 19.6594 18.7906 19.7249C18.7151 19.7294 18.7936 19.8924 18.6501 19.8529ZM19.5851 19.1799C19.4321 19.2574 19.5451 19.0539 19.4576 19.0624C19.4751 18.9974 19.5756 19.0219 19.5816 18.9469L19.7251 19.0544C19.6376 19.0519 19.7451 19.2664 19.5851 19.1799Z" fill="#DCE1EC"/>
<path fill-rule="evenodd" clip-rule="evenodd" d="M13.3915 18.2464C13.2315 18.3369 13.336 18.1344 13.262 18.1304C13.2695 18.0559 13.3825 18.0879 13.3875 18.0089C13.4025 18.0819 13.4995 18.0609 13.5205 18.1264C13.425 18.1124 13.561 18.3419 13.3915 18.2464Z" fill="#D4DAE7"/>
<path fill-rule="evenodd" clip-rule="evenodd" d="M14.0401 16.7274C13.9496 16.7214 14.0656 16.5789 13.9546 16.5879C13.9736 16.5079 14.0591 16.5244 14.1061 16.4829C14.1301 16.5334 14.1981 16.5449 14.2016 16.6174C14.2096 16.7499 14.0921 16.6814 14.0401 16.7274Z" fill="#F2F4F7"/>
<path fill-rule="evenodd" clip-rule="evenodd" d="M16.6752 17.7834C16.5367 17.8629 16.6097 17.6854 16.5457 17.6659L16.6752 17.5564C16.6782 17.6304 16.8197 17.6139 16.7797 17.6709C16.7557 17.7049 16.8332 17.8604 16.6752 17.7834Z" fill="#E6E9F1"/>
<path fill-rule="evenodd" clip-rule="evenodd" d="M16.055 17.338C15.897 17.354 16.06 17.2105 15.9575 17.214C15.9975 17.1765 16.036 17.1125 16.081 17.1085C16.12 17.1045 16.165 17.168 16.2075 17.203C16.152 17.2565 16.1605 17.3945 16.055 17.338Z" fill="#EAEDF3"/>
<path fill-rule="evenodd" clip-rule="evenodd" d="M19.891 18.5049C19.9235 18.5909 19.9875 18.6024 20.0375 18.6329C19.9865 18.6904 19.9665 18.7784 19.8605 18.7784C19.752 18.7794 19.8255 18.6969 19.801 18.6584C19.7405 18.5624 19.964 18.6434 19.891 18.5049Z" fill="#E4E8F0"/>
<path fill-rule="evenodd" clip-rule="evenodd" d="M18.7591 20.2469C18.7211 20.3034 18.7471 20.3574 18.6461 20.3594C18.5306 20.3614 18.5676 20.2769 18.5626 20.2509C18.5531 20.2079 18.6191 20.1669 18.6571 20.1754C18.6901 20.1814 18.7541 20.1999 18.7591 20.2469Z" fill="#CED5E4"/>
<path fill-rule="evenodd" clip-rule="evenodd" d="M13.357 18.645C13.2745 18.6545 13.343 18.7625 13.2385 18.759C13.143 18.756 13.157 18.6915 13.1465 18.6525C13.13 18.598 13.2105 18.5995 13.2285 18.5585C13.2665 18.585 13.305 18.6115 13.357 18.645Z" fill="#DAE0EB"/>
<path fill-rule="evenodd" clip-rule="evenodd" d="M18.5352 19.2159C18.5705 19.1899 18.6067 19.1646 18.6437 19.1399C18.6467 19.1954 18.7662 19.1634 18.7262 19.2344C18.7097 19.2629 18.7502 19.3409 18.6467 19.3339C18.5537 19.3274 18.5757 19.2624 18.5352 19.2159Z" fill="#D8DEE9"/>
<path fill-rule="evenodd" clip-rule="evenodd" d="M18.1551 19.3875C18.1371 19.486 18.0811 19.502 18.0196 19.5135C17.9151 19.531 17.9936 19.4525 17.9766 19.4225C17.9326 19.3475 18.0436 19.362 18.0566 19.313C18.0856 19.351 18.1521 19.35 18.1551 19.3875Z" fill="#CBD2E3"/>
<path fill-rule="evenodd" clip-rule="evenodd" d="M17.57 16.145C17.535 16.1615 17.5815 16.245 17.5065 16.221C17.4495 16.2015 17.3795 16.1745 17.3845 16.1045C17.3865 16.0775 17.4545 16.055 17.4925 16.0315C17.499 16.082 17.607 16.0655 17.57 16.145Z" fill="#D1D8E6"/>
<path fill-rule="evenodd" clip-rule="evenodd" d="M20.3995 18.338C20.3055 18.375 20.348 18.2975 20.3315 18.275C20.2685 18.1895 20.393 18.202 20.3995 18.151C20.438 18.1765 20.513 18.2055 20.51 18.2275C20.5078 18.2561 20.4954 18.2829 20.4752 18.3032C20.4549 18.3235 20.428 18.3358 20.3995 18.338Z" fill="#DADFEA"/>
<path fill-rule="evenodd" clip-rule="evenodd" d="M15.5651 17.575C15.5651 17.633 15.6821 17.61 15.6426 17.6825C15.6266 17.712 15.6606 17.791 15.5796 17.7745C15.5181 17.762 15.4561 17.726 15.4541 17.665C15.4541 17.6365 15.5251 17.606 15.5651 17.575Z" fill="#CAD2E2"/>
<path fill-rule="evenodd" clip-rule="evenodd" d="M17.165 19.3839C17.119 19.3624 17.117 19.3019 17.12 19.2729C17.125 19.2344 17.1765 19.1824 17.2205 19.2034C17.2475 19.2164 17.324 19.2089 17.3055 19.2789C17.2885 19.3459 17.2215 19.3554 17.165 19.3839Z" fill="#D0D7E5"/>
<path fill-rule="evenodd" clip-rule="evenodd" d="M19.1001 19.296C19.1021 19.2955 19.1371 19.247 19.1766 19.246C19.2051 19.245 19.2341 19.304 19.2646 19.337C19.2236 19.3485 19.2586 19.424 19.1776 19.423C19.1046 19.4215 19.1046 19.3885 19.1001 19.296Z" fill="#EFF2F6"/>
<path fill-rule="evenodd" clip-rule="evenodd" d="M15.883 18.0299C15.8695 18.0839 15.8695 18.1174 15.8215 18.1164C15.7725 18.1154 15.7485 18.0974 15.7495 18.0474C15.7495 18.0079 15.7755 17.9804 15.805 17.9829C15.839 17.9854 15.8875 17.9949 15.883 18.0299Z" fill="#CCD4E3"/>
<path fill-rule="evenodd" clip-rule="evenodd" d="M12.817 17.252C12.841 17.278 12.8685 17.2985 12.879 17.325C12.888 17.347 12.874 17.3805 12.843 17.384C12.8085 17.387 12.7715 17.386 12.7605 17.343C12.7505 17.301 12.787 17.286 12.817 17.252Z" fill="#E0E5EE"/>
<path fill-rule="evenodd" clip-rule="evenodd" d="M12.4635 17.625C12.45 17.5675 12.361 17.604 12.355 17.538C12.374 17.588 12.5225 17.4765 12.4635 17.625Z" fill="#7085B1"/>
<path fill-rule="evenodd" clip-rule="evenodd" d="M12.0102 15.4524C11.9992 15.3909 11.9047 15.4394 11.8997 15.3689C11.9262 15.4109 12.0602 15.3114 12.0102 15.4524Z" fill="#5C75A7"/>
<path fill-rule="evenodd" clip-rule="evenodd" d="M17.5551 14.9579C17.5646 14.9199 17.5951 14.8579 17.5831 14.8464C17.4201 14.7014 17.6376 14.6769 17.6701 14.6474C17.7296 14.5899 17.7201 14.8324 17.8771 14.6789C17.7926 14.8664 17.6796 14.9204 17.5496 14.9524L17.5551 14.9579Z" fill="#E7EAF2"/>
<path fill-rule="evenodd" clip-rule="evenodd" d="M12.7354 14.8024C12.5764 14.7869 12.7179 14.5799 12.6834 14.4599C12.6404 14.3049 12.7534 14.3069 12.8634 14.3064C13.0339 14.3054 13.1304 14.3774 13.1304 14.5574C13.1299 14.7344 13.0479 14.8044 12.7354 14.8024Z" fill="#15A24A"/>
<path fill-rule="evenodd" clip-rule="evenodd" d="M18.8107 15.8015C18.7757 15.9085 18.6462 15.9755 18.6242 16.1075C18.6222 16.125 18.5722 16.1215 18.5627 16.0705C18.5227 15.8315 18.5207 15.832 18.3442 15.96C18.3302 15.9705 18.3057 15.98 18.2922 15.9755C18.2662 15.964 18.2557 15.938 18.2712 15.9085C18.3297 15.7945 18.3847 15.6775 18.4502 15.567C18.4942 15.494 18.5477 15.555 18.5907 15.576C18.6852 15.6225 18.8017 15.649 18.8107 15.8015Z" fill="#13A248"/>
<path fill-rule="evenodd" clip-rule="evenodd" d="M19.258 16.1905C19.166 16.2275 19.1215 16.158 19.0625 16.133C19.0225 16.116 18.985 16.1 18.958 16.1445C18.9285 16.1915 18.958 16.2185 18.9985 16.2395C19.0295 16.255 19.0625 16.267 19.0855 16.2915C19.126 16.334 19.253 16.3225 19.2015 16.413C19.161 16.485 19.093 16.401 19.048 16.3745C18.9705 16.327 18.817 16.301 18.8335 16.2185C18.859 16.086 18.9345 15.942 19.035 15.851C19.1155 15.778 19.2045 15.916 19.295 15.9505C19.334 15.965 19.4005 15.978 19.389 16.0395C19.378 16.103 19.331 16.066 19.295 16.0575C19.2105 16.038 19.1285 15.895 19.062 15.994C19.022 16.053 19.1865 16.0775 19.2385 16.1425C19.2465 16.152 19.2485 16.165 19.258 16.1905ZM20.3355 16.8975C20.3505 17.0145 20.303 17.094 20.1805 17.074C20.0535 17.053 19.957 16.9755 19.935 16.8365C19.933 16.8225 19.95 16.794 19.964 16.79C19.9721 16.7873 19.9806 16.7865 19.989 16.7875C19.9974 16.7885 20.0055 16.7914 20.0127 16.7958C20.0199 16.8003 20.0261 16.8063 20.0307 16.8134C20.0353 16.8205 20.0383 16.8286 20.0395 16.837C20.0555 16.9325 20.1055 16.975 20.206 16.977C20.2255 16.8205 19.943 16.749 20.1055 16.5865C20.187 16.505 20.2865 16.5725 20.3575 16.638C20.423 16.6975 20.503 16.763 20.3835 16.848C20.3665 16.839 20.3435 16.8245 20.331 16.8345C20.3055 16.8515 20.3305 16.876 20.3355 16.8975Z" fill="#11A147"/>
<path fill-rule="evenodd" clip-rule="evenodd" d="M16.882 15.4084C16.8225 15.3749 16.8255 15.3429 16.835 15.3079C16.854 15.2334 16.8155 15.1944 16.7475 15.1734C16.6795 15.1514 16.627 15.1544 16.6085 15.2394C16.602 15.2774 16.582 15.3039 16.5405 15.2899C16.4925 15.2724 16.5165 15.2334 16.5255 15.2049C16.5445 15.1394 16.5615 15.0734 16.5915 15.0109C16.6185 14.9484 16.5995 14.8339 16.698 14.8414C16.8025 14.8489 16.9155 14.8739 16.995 14.9604C17.0305 14.9984 17.045 15.0639 17.016 15.0924C16.9315 15.1794 16.9385 15.3024 16.882 15.4084Z" fill="#0FA046"/>
<path fill-rule="evenodd" clip-rule="evenodd" d="M13.7965 14.7719C13.635 14.8329 13.5075 14.7974 13.383 14.7999C13.3265 14.8014 13.3215 14.7589 13.3215 14.7159C13.3249 14.6683 13.3262 14.6206 13.3255 14.5729C13.3315 14.3094 13.425 14.2419 13.684 14.3154C13.713 14.3234 13.7405 14.3284 13.7425 14.3609C13.7425 14.4059 13.71 14.4139 13.67 14.4129C13.6644 14.4116 13.658 14.4111 13.651 14.4114C13.5735 14.4304 13.4345 14.3429 13.432 14.4589C13.429 14.5479 13.5805 14.4849 13.658 14.5149C13.6684 14.5199 13.6817 14.5289 13.698 14.5419C13.649 14.6304 13.5675 14.5809 13.5045 14.5914C13.467 14.5974 13.418 14.5809 13.4125 14.6419C13.4055 14.7139 13.4555 14.7104 13.5045 14.7154C13.588 14.7254 13.6785 14.6939 13.7965 14.7719Z" fill="#0B9F43"/>
<path fill-rule="evenodd" clip-rule="evenodd" d="M12.4689 14.81C12.3819 14.791 12.3939 14.741 12.3789 14.706C12.3529 14.6415 12.3014 14.6415 12.2449 14.646C12.1804 14.652 12.1454 14.677 12.1509 14.7485C12.1549 14.7835 12.1689 14.84 12.1039 14.832C12.0479 14.825 12.0639 14.7705 12.0609 14.7335C12.0559 14.673 12.0499 14.611 12.0559 14.551C12.0639 14.484 11.9999 14.3815 12.0964 14.3575C12.1959 14.3315 12.3109 14.313 12.4144 14.3625C12.4594 14.384 12.4949 14.4365 12.4784 14.479C12.4404 14.586 12.4704 14.6945 12.4689 14.81Z" fill="#079D3F"/>
<path fill-rule="evenodd" clip-rule="evenodd" d="M11.4136 14.64C11.4296 14.5045 11.4891 14.3945 11.6376 14.3995C11.7801 14.404 11.8561 14.503 11.8561 14.6455C11.8561 14.787 11.7901 14.8845 11.6396 14.8835C11.4866 14.8825 11.4346 14.7715 11.4136 14.64Z" fill="#15A24A"/>
<path fill-rule="evenodd" clip-rule="evenodd" d="M20.932 17.18C20.918 17.3145 20.8515 17.416 20.698 17.4295C20.5565 17.441 20.4815 17.36 20.4705 17.227C20.458 17.0925 20.59 16.964 20.7245 16.965C20.8425 16.966 20.929 17.0515 20.932 17.18Z" fill="#11A147"/>
<path fill-rule="evenodd" clip-rule="evenodd" d="M18.125 15.615C18.238 15.706 18.101 15.766 18.096 15.8425C18.002 15.799 17.8845 15.8165 17.8085 15.734C17.7275 15.646 17.7425 15.5465 17.7955 15.4495C17.854 15.347 17.944 15.303 18.0545 15.342C18.1555 15.378 18.231 15.446 18.182 15.574C18.1045 15.588 18.041 15.486 17.932 15.5545C18.0045 15.588 18.0915 15.5415 18.125 15.615Z" fill="#0C9F43"/>
<path fill-rule="evenodd" clip-rule="evenodd" d="M15.4051 14.585C15.3391 14.6625 15.2906 14.6325 15.2451 14.6335C15.2011 14.6335 15.1541 14.597 15.0996 14.6425C15.1486 14.7225 15.2671 14.671 15.3131 14.7505C15.3066 14.762 15.3036 14.7775 15.2951 14.7855C15.2291 14.8375 15.1236 14.7115 15.0826 14.8155C15.0451 14.905 15.1436 14.874 15.1861 14.889C15.2341 14.908 15.2936 14.901 15.3516 14.966C15.2171 15.025 15.0566 14.9975 15.0011 14.9325C14.9136 14.83 14.9751 14.648 15.0416 14.557C15.1201 14.4495 15.2636 14.5545 15.4051 14.585Z" fill="#19A44D"/>
<path fill-rule="evenodd" clip-rule="evenodd" d="M16.2576 15.0199C16.1441 15.0079 16.0151 14.9279 15.9826 15.1149C15.9816 15.1209 15.9421 15.1294 15.9301 15.1214C15.9166 15.1139 15.9091 15.0859 15.9116 15.0699C15.9411 14.9514 15.9561 14.8244 16.0086 14.7179C16.0696 14.5979 16.1731 14.6994 16.2586 14.7109C16.3606 14.7244 16.4171 14.7864 16.4061 14.8939C16.3961 14.9864 16.3261 15.0114 16.2576 15.0199Z" fill="#0D9F44"/>
<path fill-rule="evenodd" clip-rule="evenodd" d="M17.6101 15.3065C17.5991 15.457 17.5251 15.561 17.3746 15.5655C17.2401 15.5705 17.1646 15.476 17.1676 15.342C17.1716 15.197 17.2421 15.092 17.3986 15.0875C17.5421 15.0825 17.5976 15.179 17.6101 15.3065Z" fill="#0FA046"/>
<path fill-rule="evenodd" clip-rule="evenodd" d="M14.2396 14.7634C14.2231 14.7989 14.2096 14.8494 14.1621 14.8379C14.0796 14.8184 14.1166 14.7389 14.0966 14.6869C14.0356 14.6274 14.0516 14.7094 14.0326 14.7244C14.0256 14.7614 14.0426 14.8179 13.9926 14.8254C13.9311 14.8329 13.9456 14.7739 13.9471 14.7389C13.9521 14.6659 13.9531 14.5894 13.9731 14.5194C13.9906 14.4594 13.9271 14.3489 14.0466 14.3479C14.1521 14.3474 14.1291 14.4549 14.1426 14.5194C14.1566 14.5934 14.1641 14.6249 14.2246 14.5514C14.2871 14.5349 14.3001 14.5804 14.3146 14.6244C14.3226 14.6884 14.2941 14.7329 14.2396 14.7634Z" fill="#0EA044"/>
<path fill-rule="evenodd" clip-rule="evenodd" d="M19.5651 16.6C19.6021 16.6 19.6396 16.649 19.6756 16.607C19.7031 16.5755 19.6786 16.5445 19.6541 16.519C19.6354 16.5 19.6174 16.4803 19.6001 16.46C19.5491 16.3985 19.4776 16.3395 19.5481 16.2505C19.6121 16.169 19.6866 16.189 19.7606 16.2405C19.7741 16.2665 19.7696 16.2915 19.7556 16.315C19.7011 16.4005 19.8026 16.4525 19.8006 16.5255C19.8161 16.594 19.8261 16.663 19.7506 16.7025C19.6566 16.7525 19.5841 16.7065 19.5151 16.6465C19.5076 16.607 19.5221 16.5875 19.5651 16.6Z" fill="#10A146"/>
<path fill-rule="evenodd" clip-rule="evenodd" d="M18.125 15.615C18.0865 15.642 18.009 15.5545 18.0115 15.6205C18.0165 15.7375 17.958 15.727 17.9035 15.6925C17.83 15.647 17.826 15.569 17.8725 15.497C17.9175 15.4265 17.981 15.3855 18.058 15.443C18.105 15.4775 18.1405 15.5295 18.181 15.574L18.125 15.615Z" fill="#ECF7F0"/>
<path fill-rule="evenodd" clip-rule="evenodd" d="M14.2726 14.6449C14.2582 14.614 14.2421 14.5838 14.2246 14.5544C14.2421 14.5099 14.2581 14.4649 14.2791 14.4219C14.2981 14.3814 14.3311 14.3589 14.3776 14.3739C14.4296 14.3914 14.4256 14.4314 14.4226 14.4734C14.4116 14.5958 14.4014 14.7181 14.3921 14.8404C14.3191 14.8869 14.3006 14.8444 14.2886 14.7814C14.2796 14.7359 14.3031 14.6869 14.2726 14.6449Z" fill="#17A34C"/>
<path fill-rule="evenodd" clip-rule="evenodd" d="M19.8021 16.5249C19.7571 16.4789 19.7091 16.4354 19.6671 16.3864C19.6181 16.3284 19.6371 16.2929 19.7101 16.2834C19.8156 16.3069 19.8801 16.3579 19.8491 16.4789C19.8344 16.4943 19.8187 16.5096 19.8021 16.5249Z" fill="#D7EFE0"/>
<path fill-rule="evenodd" clip-rule="evenodd" d="M19.849 16.479C19.8005 16.416 19.7875 16.326 19.71 16.2835L19.762 16.24C19.846 16.2995 19.9995 16.3335 19.849 16.479Z" fill="#2BAB5B"/>
<path fill-rule="evenodd" clip-rule="evenodd" d="M20.3356 16.8975C20.3291 16.8935 20.3206 16.8915 20.3176 16.886C20.2776 16.812 20.1451 16.7455 20.1901 16.68C20.2466 16.601 20.3056 16.6945 20.3366 16.762C20.3506 16.7905 20.3676 16.8185 20.3836 16.848C20.3669 16.8646 20.3509 16.8811 20.3356 16.8975Z" fill="#E6F5EC"/>
<path fill-rule="evenodd" clip-rule="evenodd" d="M19.5651 16.6C19.5498 16.6157 19.5331 16.6313 19.5151 16.647C19.4941 16.632 19.4651 16.6215 19.4516 16.6C19.4261 16.5515 19.3531 16.487 19.4376 16.449C19.5086 16.415 19.5086 16.5055 19.5316 16.5495C19.5411 16.568 19.5531 16.5835 19.5651 16.6Z" fill="#29AA59"/>
<path fill-rule="evenodd" clip-rule="evenodd" d="M14.2725 14.6449C14.3455 14.6734 14.307 14.7344 14.308 14.7799C14.312 14.8424 14.334 14.8634 14.3925 14.8414C14.2705 14.9594 14.286 14.8019 14.239 14.7669C14.2515 14.7254 14.261 14.6849 14.2725 14.6449Z" fill="#DDF1E4"/>
<path fill-rule="evenodd" clip-rule="evenodd" d="M14.03 14.725V14.564C14.099 14.586 14.101 14.6345 14.094 14.6875L14.03 14.725Z" fill="#6FC690"/>
<path fill-rule="evenodd" clip-rule="evenodd" d="M12.7839 14.5599C12.7909 14.4869 12.7559 14.3919 12.8804 14.3999C12.9714 14.4054 13.0374 14.4419 13.0424 14.5459C13.0474 14.6579 12.9819 14.7034 12.8784 14.7109C12.7469 14.7214 12.8004 14.6179 12.7839 14.5599Z" fill="#F5FBF7"/>
<path fill-rule="evenodd" clip-rule="evenodd" d="M18.55 15.6599C18.602 15.6884 18.6815 15.6939 18.6985 15.7709C18.707 15.8109 18.6725 15.8374 18.637 15.8259C18.571 15.8059 18.4835 15.8049 18.4745 15.7119C18.472 15.6849 18.501 15.6509 18.55 15.6599Z" fill="#EFF8F3"/>
<path fill-rule="evenodd" clip-rule="evenodd" d="M16.9286 15.0449C16.9151 15.0969 16.8786 15.1149 16.8366 15.0994C16.7801 15.0789 16.6891 15.1014 16.6881 15.0024C16.6861 14.9509 16.7211 14.9354 16.7681 14.9509C16.8301 14.9709 16.9051 14.9684 16.9286 15.0449Z" fill="#DEF2E5"/>
<path fill-rule="evenodd" clip-rule="evenodd" d="M12.2575 14.4294C12.3065 14.4354 12.384 14.4094 12.379 14.4929C12.374 14.5659 12.3 14.5544 12.247 14.5554C12.2045 14.5569 12.1435 14.5789 12.1395 14.5024C12.1365 14.4114 12.2075 14.4399 12.2575 14.4294Z" fill="#F3FAF5"/>
<path fill-rule="evenodd" clip-rule="evenodd" d="M11.6251 14.4989C11.7156 14.5049 11.7606 14.5589 11.7641 14.6439C11.7691 14.7199 11.7316 14.7849 11.6536 14.7919C11.5636 14.8004 11.5231 14.7319 11.5181 14.6484C11.5131 14.5714 11.5431 14.5154 11.6251 14.4989Z" fill="#F3FAF6"/>
<path fill-rule="evenodd" clip-rule="evenodd" d="M20.8325 17.1974C20.8195 17.2804 20.7695 17.3389 20.673 17.3389C20.5955 17.3379 20.5665 17.2814 20.5745 17.2129C20.582 17.1199 20.6375 17.0599 20.732 17.0614C20.8065 17.0634 20.8355 17.1169 20.8325 17.1974Z" fill="#F9FCFA"/>
<path fill-rule="evenodd" clip-rule="evenodd" d="M16.1402 14.774C16.1907 14.805 16.2922 14.773 16.3067 14.873C16.3112 14.911 16.2692 14.9305 16.2357 14.923C16.1702 14.9085 16.0787 14.932 16.0707 14.8265C16.0692 14.794 16.0837 14.759 16.1402 14.774Z" fill="#E7F5EC"/>
<path fill-rule="evenodd" clip-rule="evenodd" d="M17.5102 15.3184C17.5007 15.4049 17.4582 15.4654 17.3707 15.4654C17.2847 15.4664 17.2542 15.4064 17.2582 15.3274C17.2652 15.2404 17.3147 15.1824 17.3992 15.1789C17.4832 15.1759 17.5102 15.2429 17.5102 15.3184Z" fill="#F5FBF7"/>
</svg>
