<svg width="40" height="29" viewBox="0 0 40 29" fill="none" xmlns="http://www.w3.org/2000/svg">
<g clip-path="url(#clip0_2061_69)">
<path d="M39.1746 11.0152C38.2738 10.3902 36.2096 10.1558 34.5958 10.4683C34.4083 8.90578 33.545 7.53875 32.0438 6.32781L31.1807 5.70281L30.58 6.60125C29.8296 7.77313 29.4543 9.41375 29.5668 10.9763C29.6043 11.523 29.7919 12.4995 30.3549 13.3589C29.8296 13.6714 28.7411 14.062 27.315 14.062H0.18067L0.10567 14.3745C-0.157142 15.9369 -0.157142 20.8195 2.92036 24.5694C5.24723 27.4208 8.70004 28.8661 13.2411 28.8661C23.074 28.8661 30.3549 24.1395 33.7702 15.5853C35.1213 15.6244 38.0111 15.5853 39.4749 12.6556C39.5124 12.5775 39.5874 12.4213 39.85 11.8355L40.0002 11.523L39.1746 11.0152ZM21.873 0H17.7449V3.90609H21.873V0ZM21.873 4.68734H17.7449V8.59344H21.873V4.68734ZM16.9941 4.68734H12.866V8.59344H16.9941V4.68734ZM12.1152 4.68734H7.98692V8.59344H12.1152V4.68734ZM7.2363 9.37469H3.10801V13.2808H7.23614L7.2363 9.37469ZM12.1152 9.37469H7.98692V13.2808H12.1152V9.37469ZM16.9941 9.37469H12.866V13.2808H16.9941V9.37469ZM21.8732 9.37469H17.7447V13.2808H21.8732V9.37469ZM26.7521 9.37469H22.6236V13.2808H26.7521V9.37469Z" fill="#2396ED"/>
</g>
<defs>
<clipPath id="clip0_2061_69">
<rect width="40" height="28.9062" fill="white"/>
</clipPath>
</defs>
</svg>
