<svg width="37" height="40" viewBox="0 0 37 40" fill="none" xmlns="http://www.w3.org/2000/svg">
<g clip-path="url(#clip0_2054_126)">
<path d="M33.8591 19.6409C33.8591 17.5903 32.1966 15.9278 30.146 15.9278C30.0141 15.9279 29.884 15.9348 29.7556 15.9484L34.8556 0.906738H13.1826L18.2755 15.9353C18.2004 15.9305 18.1251 15.9281 18.0498 15.9279C15.9992 15.9279 14.3367 17.5901 14.3367 19.641C14.3367 21.2985 15.4231 22.7019 16.9223 23.1794C16.1305 24.551 15.134 25.7865 14.0027 26.8539C12.4643 28.305 10.7038 29.4055 8.7996 30.0836C6.53246 28.9189 5.46193 26.3288 6.42787 24.0578C6.53699 23.8013 6.64836 23.5414 6.7548 23.2826C8.3972 22.8992 9.62123 21.4269 9.62123 19.6676C9.62123 17.6168 7.95875 15.9545 5.90801 15.9545C3.85727 15.9545 2.19494 17.6168 2.19494 19.6676C2.19494 20.9251 2.82052 22.0359 3.77699 22.7076C2.85798 24.8 1.50702 26.99 1.0861 29.5281C0.58165 32.5698 1.08441 35.7986 3.71522 37.6221C9.84215 41.8686 16.4929 34.9896 23.5052 33.2602C26.0465 32.6337 28.8362 32.7346 31.0752 31.4379C32.7566 30.464 33.8652 28.8501 34.1797 27.0382C34.4906 25.2482 34.0375 23.466 32.9955 22.0209C33.5545 21.3539 33.8603 20.5111 33.8591 19.6409Z" fill="#99425B"/>
<path d="M33.2862 26.8831C33.0132 28.4563 32.0416 29.8302 30.6208 30.6533C29.2963 31.4203 27.7091 31.6493 26.0286 31.8916C25.1284 32.0213 24.1975 32.1558 23.2881 32.3799C20.8836 32.9729 18.5545 34.1297 16.3024 35.2485C11.7949 37.4873 7.90235 39.4206 4.23196 36.8767C1.54334 35.0134 1.66744 31.5658 1.98065 29.6766C2.27097 27.9262 3.05585 26.3142 3.81472 24.7553C3.944 24.4904 4.07225 24.225 4.19945 23.959C4.58201 24.1119 4.9834 24.2125 5.39281 24.2584C4.62023 26.8081 5.83521 29.5804 8.38518 30.8903L8.73429 31.0697L9.10376 30.9381C11.1197 30.2201 12.9774 29.0681 14.625 27.5135C15.6901 26.5087 16.6058 25.397 17.3585 24.2092C17.5873 24.2436 17.8184 24.2609 18.0498 24.2611C20.3903 24.2611 22.3284 22.5114 22.6283 20.2516C23.5863 20.2165 24.6038 20.2163 25.5674 20.2513C25.867 22.5114 27.8054 24.2612 30.1459 24.2612C31.1245 24.2612 32.0322 23.9545 32.7801 23.4335C33.2992 24.4963 33.493 25.692 33.2862 26.8831ZM5.90815 16.8615C7.45557 16.8615 8.71436 18.1204 8.71436 19.6678C8.71479 20.2035 8.56096 20.7279 8.27126 21.1784C7.80482 21.9059 7.01189 22.4045 6.10094 22.4667C6.03719 22.471 5.97288 22.4741 5.90815 22.4741C5.56327 22.4741 5.23295 22.4112 4.92751 22.297C4.31238 22.0656 3.79726 21.6269 3.47097 21.0564C3.22856 20.6338 3.10125 20.155 3.10178 19.6678C3.10178 18.1204 4.36072 16.8615 5.90815 16.8615ZM15.2437 19.6411C15.2437 18.2352 16.283 17.0678 17.6334 16.866C17.7694 16.8454 17.9083 16.835 18.0499 16.8349C18.9496 16.8349 19.7506 17.2611 20.2642 17.9214C20.3927 18.0861 20.5026 18.2646 20.5918 18.4536C20.7664 18.8251 20.8566 19.2306 20.8561 19.6411C20.8561 19.8654 20.829 20.0835 20.7791 20.2927C20.5056 21.4376 19.5293 22.3128 18.333 22.4332C18.24 22.4426 18.1457 22.4473 18.0499 22.4473C17.5101 22.4478 16.9818 22.2916 16.5291 21.9977C15.7565 21.4972 15.2437 20.6281 15.2437 19.6411ZM26.9561 16.304C26.3453 16.8868 25.9058 17.6258 25.6853 18.4407C24.6275 18.4017 23.5687 18.4017 22.511 18.4407C22.2735 17.5599 21.7814 16.7828 21.1192 16.1925L24.0231 10.3208L26.9561 16.304ZM14.4475 1.81399H33.5906L29.0691 15.149C28.8746 15.1956 28.6834 15.2548 28.4966 15.3264L24.0301 6.21498L19.551 15.2719C19.3557 15.2049 19.1562 15.1511 18.9537 15.111L14.4475 1.81399ZM32.9521 19.6413C32.9521 19.9225 32.9101 20.1942 32.8328 20.4507C32.6494 21.0547 32.2685 21.5796 31.7511 21.9412C31.2809 22.2712 30.7203 22.448 30.1459 22.4475C28.8502 22.4475 27.7572 21.5645 27.4358 20.3688C27.372 20.1315 27.3396 19.8869 27.3397 19.6413C27.3397 19.2577 27.4171 18.8919 27.5571 18.5586C27.6294 18.3881 27.7183 18.2252 27.8225 18.0721C28.3275 17.3266 29.1797 16.8351 30.1459 16.8351C30.2345 16.8351 30.322 16.8394 30.4085 16.8478C31.8332 16.9805 32.9521 18.1823 32.9521 19.6413ZM34.7661 19.6413C34.7661 17.3857 33.1409 15.5037 31.0004 15.1018L36.1206 0H11.9178L17.046 15.1323C14.9798 15.5921 13.43 17.4384 13.43 19.6411C13.43 21.2951 14.304 22.7478 15.614 23.5642C14.9839 24.503 14.2368 25.3864 13.3805 26.1943C12.0225 27.4753 10.5097 28.4469 8.87875 29.0862C7.23592 28.0543 6.5415 26.1081 7.26263 24.4129L7.31917 24.28L7.42518 24.0307C9.22956 23.4013 10.5281 21.684 10.5281 19.6678C10.5281 17.1203 8.45557 15.0478 5.90815 15.0478C3.36058 15.0478 1.28807 17.1203 1.28807 19.6678C1.28807 20.9536 1.8167 22.118 2.6673 22.9565C2.50865 23.2926 2.34761 23.6276 2.18419 23.9614C1.40638 25.5587 0.524965 27.3692 0.191537 29.3798C-0.470513 33.3727 0.597473 36.5647 3.19889 38.3675C4.7774 39.4615 6.38051 39.8917 7.99366 39.8917C11.0311 39.8917 14.1039 38.3657 17.1093 36.8728C19.2737 35.7979 21.5118 34.6862 23.7226 34.1409C24.5452 33.9381 25.3915 33.816 26.2877 33.6868C28.0648 33.4304 29.9022 33.1654 31.5299 32.2228C33.4167 31.1299 34.7081 29.2967 35.0734 27.1935C35.3869 25.3878 35.0096 23.5794 34.0895 22.0455C34.5328 21.3219 34.767 20.4897 34.7661 19.6411" fill="white"/>
</g>
<defs>
<clipPath id="clip0_2054_126">
<rect width="36.1837" height="40" fill="white"/>
</clipPath>
</defs>
</svg>
