<svg width="36" height="40" viewBox="0 0 36 40" fill="none" xmlns="http://www.w3.org/2000/svg">
<g clip-path="url(#clip0_2054_158)">
<path d="M17.7187 39.9257C17.1685 39.9257 16.655 39.779 16.1782 39.5223L11.2997 36.6246C10.5662 36.2211 10.933 36.0744 11.153 36.001C12.1433 35.6709 12.3267 35.5976 13.3537 35.0106C13.4639 34.9372 13.6106 34.9739 13.7205 35.0473L17.462 37.2848C17.6087 37.3581 17.7921 37.3581 17.9021 37.2848L32.5374 28.8118C32.6841 28.7385 32.7575 28.5918 32.7575 28.4084V11.4989C32.7575 11.3155 32.6841 11.1688 32.5374 11.0954L17.9021 2.65903C17.7554 2.58567 17.572 2.58567 17.462 2.65903L2.82666 11.0956C2.67995 11.1689 2.60659 11.3523 2.60659 11.499V28.4084C2.60659 28.5551 2.67995 28.7385 2.82666 28.8118L6.82486 31.1226C8.98902 32.2229 10.346 30.9392 10.346 29.6554V12.966C10.346 12.746 10.5295 12.5259 10.7862 12.5259H12.657C12.877 12.5259 13.0971 12.7093 13.0971 12.966V29.6553C13.0971 32.553 11.5198 34.2402 8.76881 34.2402C7.92521 34.2402 7.265 34.2402 5.39441 33.3233L1.54293 31.1226C0.589293 30.5722 0.00244141 29.5453 0.00244141 28.4449V11.5357C0.00244141 10.4354 0.589293 9.40837 1.54293 8.85806L16.1782 0.385121C17.0952 -0.128374 18.3422 -0.128374 19.2592 0.385121L33.8945 8.85806C34.8481 9.40824 35.435 10.4352 35.435 11.5357V28.4451C35.435 29.5454 34.8481 30.5724 33.8945 31.1226L19.2592 39.5958C18.7824 39.8158 18.2322 39.9259 17.7187 39.9259M22.2303 28.2983C15.8113 28.2983 14.4909 25.3641 14.4909 22.8698C14.4909 22.6498 14.6743 22.4297 14.931 22.4297H16.8383C17.0584 22.4297 17.2419 22.5764 17.2419 22.7965C17.5353 24.7404 18.3789 25.6942 22.2669 25.6942C25.348 25.6942 26.6686 24.9973 26.6686 23.3468C26.6686 22.393 26.3018 21.6961 21.4967 21.2192C17.4986 20.8157 15.0044 19.9354 15.0044 16.7444C15.0044 13.7732 17.4985 12.0127 21.6801 12.0127C26.375 12.0127 28.6859 13.6265 28.9793 17.1477C28.9793 17.2578 28.9426 17.3679 28.8693 17.4779C28.7959 17.5512 28.6859 17.6246 28.5759 17.6246H26.6686C26.4851 17.6246 26.3018 17.4779 26.265 17.2945C25.8249 15.2772 24.6878 14.617 21.6801 14.617C18.3057 14.617 17.9021 15.7907 17.9021 16.6709C17.9021 17.7347 18.3789 18.0647 22.9271 18.6516C27.4388 19.2384 29.5662 20.0821 29.5662 23.2366C29.5295 26.4644 26.8887 28.2983 22.2303 28.2983Z" fill="#539E43"/>
</g>
<defs>
<clipPath id="clip0_2054_158">
<rect width="35.4375" height="40" fill="white"/>
</clipPath>
</defs>
</svg>
