<svg width="39" height="40" viewBox="0 0 39 40" fill="none" xmlns="http://www.w3.org/2000/svg">
<g clip-path="url(#clip0_2061_73)">
<path d="M38.6376 23.9524C38.405 23.248 37.7958 22.7574 37.0079 22.6397C36.6364 22.5842 36.2109 22.6078 35.7074 22.7116C34.8299 22.8927 34.1788 22.9616 33.7036 22.975C35.4971 19.9469 36.9555 16.4939 37.795 13.2434C39.1526 7.98753 38.4271 5.59314 37.5794 4.5101C35.3359 1.64344 32.0627 0.103438 28.1139 0.0563166C26.0074 0.0305591 24.1582 0.446468 23.1935 0.745559C22.2953 0.587074 21.3296 0.498589 20.3162 0.482226C18.4167 0.451923 16.7383 0.866014 15.3042 1.71707C14.5103 1.44859 13.2361 1.0701 11.7646 0.828589C8.30364 0.260408 5.51425 0.703135 3.47395 2.1445C1.00334 3.88965 -0.141964 6.92177 0.0698544 11.1566C0.137127 12.5012 0.889248 16.5921 2.07349 20.4718C2.7541 22.7018 3.47985 24.5536 4.23061 25.9763C5.29531 27.9937 6.43455 29.1818 7.71349 29.6084C8.43031 29.8472 9.73273 30.0145 11.1026 28.8736C11.2762 29.0839 11.5079 29.2928 11.8153 29.4869C12.2058 29.7331 12.6832 29.9343 13.16 30.0536C14.8783 30.4831 16.4879 30.3757 17.8611 29.7736C17.8696 30.0178 17.8761 30.2512 17.8815 30.4527C17.8906 30.7795 17.8997 31.1 17.9117 31.3997C17.993 33.426 18.1309 35.0016 18.5394 36.104C18.5618 36.1647 18.592 36.2571 18.6238 36.3551C18.8276 36.979 19.1683 38.0236 20.0353 38.8416C20.933 39.689 22.0189 39.9489 23.0135 39.9489C23.5123 39.9489 23.9882 39.8834 24.4056 39.794C25.8935 39.4751 27.5833 38.9893 28.8058 37.2487C29.9615 35.6033 30.5233 33.125 30.625 29.22C30.6381 29.1094 30.6505 29.004 30.662 28.9036L30.6862 28.6972L30.9585 28.7212L31.0286 28.7259C32.5441 28.795 34.3971 28.4736 35.5352 27.945C36.4344 27.5277 39.3161 26.0063 38.6376 23.9524Z" fill="black"/>
<path d="M36.0463 24.3517C31.5403 25.2813 31.2304 23.7556 31.2304 23.7556C35.988 16.6961 37.9769 7.73504 36.2607 5.54185C31.5783 -0.440721 23.473 2.38867 23.3377 2.46201L23.2942 2.46989C22.4039 2.28504 21.4077 2.17504 20.2878 2.1567C18.2491 2.12337 16.7024 2.69125 15.5288 3.58125C15.5288 3.58125 1.06966 -2.37542 1.74224 11.0728C1.88527 13.9337 5.84285 32.7202 10.5631 27.0458C12.2885 24.9708 13.9556 23.2164 13.9556 23.2164C14.7835 23.7664 15.7747 24.047 16.8138 23.9463L16.8945 23.8778C16.8694 24.1353 16.8809 24.3873 16.9268 24.6856C15.7107 26.0443 16.0681 26.2828 13.6372 26.7832C11.1774 27.2902 12.6224 28.1926 13.5659 28.4287C14.7097 28.7146 17.3557 29.1197 19.1436 26.6169L19.0724 26.9025C19.5488 27.2841 19.8833 29.3847 19.8272 31.2891C19.7712 33.1934 19.7338 34.5008 20.1091 35.522C20.4847 36.5432 20.8588 38.8409 24.0545 38.1563C26.7247 37.584 28.1085 36.1011 28.301 33.6275C28.4375 31.869 28.7468 32.129 28.7662 30.5567L29.0142 29.8125C29.3001 27.4287 29.0597 26.6596 30.7047 27.0173L31.1047 27.0525C32.3153 27.1075 33.9001 26.8576 34.8303 26.4253C36.833 25.4959 38.0209 23.944 36.046 24.3517H36.0463Z" fill="#336791"/>
<path d="M16.3751 12.3522C15.969 12.2957 15.6013 12.3479 15.4153 12.4888C15.3107 12.5681 15.2783 12.6599 15.2695 12.7231C15.2462 12.8905 15.3634 13.0757 15.4356 13.1711C15.6395 13.4414 15.9374 13.6272 16.2322 13.6681C16.275 13.674 16.3175 13.677 16.3598 13.6769C16.8515 13.6769 17.2986 13.294 17.338 13.0114C17.3872 12.6575 16.8734 12.4214 16.3751 12.3522ZM29.8272 12.3634C29.7884 12.086 29.2948 12.0069 28.8263 12.072C28.3584 12.1372 27.9048 12.3484 27.9427 12.6264C27.973 12.8426 28.3634 13.2117 28.8256 13.2117C28.8647 13.2117 28.904 13.209 28.9437 13.2035C29.2522 13.1608 29.4786 12.9649 29.5862 12.852C29.7498 12.6799 29.8447 12.4881 29.8272 12.3634Z" fill="white"/>
<path d="M37.5458 24.2462C37.3739 23.7266 36.8209 23.5595 35.9021 23.7492C33.1741 24.3123 32.1971 23.9223 31.8764 23.686C33.9968 20.4557 35.7412 16.5509 36.6823 12.9077C37.128 11.1819 37.3742 9.57922 37.3944 8.27286C37.4167 6.83907 37.1724 5.78544 36.6688 5.1418C34.6382 2.5471 31.6579 1.15528 28.0503 1.1171C25.5702 1.08922 23.4747 1.72392 23.0685 1.9024C22.213 1.68968 21.2805 1.55907 20.2652 1.5424C18.4033 1.51225 16.7939 1.95801 15.4615 2.86665C14.8827 2.65119 13.387 2.13771 11.5577 1.84301C8.3953 1.33392 5.88227 1.71968 4.08894 2.99013C1.94909 4.50619 0.961214 7.21619 1.15258 11.0447C1.21697 12.3327 1.95091 16.2951 3.10909 20.0898C4.63364 25.0844 6.29091 27.9118 8.03455 28.4935C8.23864 28.5615 8.47394 28.6091 8.73349 28.6091C9.36955 28.6091 10.1494 28.3224 10.9608 27.347C11.9504 26.1598 12.9741 25.0014 14.0306 23.8733C14.7161 24.2412 15.4691 24.4466 16.2392 24.4673C16.2409 24.4875 16.2426 24.5076 16.2445 24.5276C16.112 24.6857 15.9822 24.846 15.8552 25.0086C15.3215 25.686 15.2105 25.8271 13.4927 26.1807C13.0041 26.2816 11.7064 26.5491 11.6873 27.4588C11.6667 28.4527 13.2214 28.8701 13.3985 28.9144C14.0158 29.0689 14.6105 29.1451 15.1776 29.1451C16.5568 29.1451 17.7706 28.6918 18.7406 27.8147C18.7108 31.358 18.8585 34.8495 19.2839 35.9133C19.6324 36.7842 20.4836 38.9126 23.1724 38.9124C23.567 38.9124 24.0012 38.8665 24.4789 38.7641C27.2852 38.1626 28.5038 36.9223 28.9752 34.1879C29.2274 32.7265 29.6603 29.237 29.8639 27.3651C30.2936 27.4992 30.8468 27.5606 31.4448 27.5604C32.6921 27.5604 34.1314 27.2954 35.0339 26.8765C36.0479 26.4056 37.8776 25.2501 37.5458 24.2462ZM30.863 11.5977C30.8538 12.1503 30.7777 12.6519 30.6971 13.1756C30.6103 13.7388 30.5206 14.321 30.498 15.0279C30.4758 15.7157 30.5617 16.4309 30.6447 17.1226C30.8126 18.5195 30.9848 19.9577 30.318 21.3768C30.2074 21.1804 30.1088 20.9776 30.0226 20.7694C29.9397 20.5685 29.7597 20.2457 29.5105 19.7991C28.5409 18.0603 26.2705 13.9885 27.4327 12.3269C27.7789 11.8324 28.6576 11.3239 30.863 11.5977ZM28.1897 2.23604C31.4221 2.3074 33.9791 3.51665 35.7894 5.82998C37.1779 7.60437 35.6489 15.6782 31.2227 22.6435C31.1782 22.5869 31.1335 22.5305 31.0885 22.4742L31.0324 22.4042C32.1762 20.5153 31.9526 18.6463 31.7535 16.9894C31.6717 16.3094 31.5944 15.6671 31.6141 15.0638C31.6344 14.4244 31.7189 13.8759 31.8008 13.3456C31.9012 12.6921 32.0035 12.0159 31.9753 11.2188C31.9964 11.1351 32.0048 11.0363 31.9938 10.9191C31.9218 10.1547 31.0491 7.86695 29.2703 5.79634C28.2973 4.66377 26.8783 3.39634 24.9409 2.5415C25.7742 2.36877 26.9138 2.20771 28.1897 2.23604ZM10.1021 26.633C9.20818 27.7079 8.59091 27.5018 8.38788 27.4342C7.06515 26.993 5.5303 24.1973 4.17712 19.7639C3.00621 15.9279 2.32197 12.0704 2.26773 10.9888C2.09682 7.56786 2.92606 5.18377 4.73258 3.90256C7.67258 1.81771 12.5062 3.06559 14.4485 3.69847C14.4206 3.72604 14.3915 3.7518 14.3639 3.77983C11.1767 6.99862 11.2523 12.498 11.2602 12.8342C11.2598 12.9639 11.2708 13.1476 11.2856 13.4001C11.3405 14.3251 11.4426 16.0466 11.1698 17.9962C10.9165 19.8079 11.475 21.581 12.7018 22.8612C12.8277 22.9924 12.96 23.1172 13.0983 23.2351C12.5523 23.82 11.3655 25.1133 10.1021 26.633ZM13.508 22.0886C12.5192 21.0568 12.0702 19.6216 12.2758 18.1507C12.5636 16.0913 12.4574 14.2977 12.4003 13.3341C12.3923 13.1992 12.3852 13.081 12.3811 12.9879C12.8467 12.575 15.0044 11.4189 16.5432 11.7715C17.2453 11.9323 17.6732 12.4104 17.8511 13.2329C18.7717 17.4909 17.9729 19.2656 17.3311 20.6918C17.1988 20.9856 17.0738 21.2633 16.9671 21.5506L16.8844 21.7727C16.675 22.3342 16.4802 22.8563 16.3594 23.3521C15.3082 23.3491 14.2856 22.9 13.508 22.0885M13.6694 27.8309C13.3624 27.7542 13.0864 27.621 12.9244 27.5106C13.0597 27.447 13.3005 27.3603 13.718 27.2742C15.7388 26.8583 16.0509 26.5647 16.7324 25.6994C16.8886 25.5009 17.0658 25.276 17.3111 25.0021L17.3114 25.0018C17.6767 24.5927 17.8438 24.6621 18.1468 24.7879C18.3924 24.8894 18.6317 25.1973 18.7286 25.536C18.7745 25.696 18.8261 25.9997 18.6574 26.236C17.2338 28.2294 15.1592 28.2038 13.6694 27.8309ZM24.245 37.6721C21.7729 38.2018 20.8976 36.9404 20.3208 35.4985C19.9485 34.5676 19.7655 30.3697 19.8953 25.7338C19.897 25.6721 19.8882 25.6126 19.8712 25.5565C19.8561 25.4458 19.833 25.3363 19.8021 25.2289C19.6091 24.5544 19.1386 23.9901 18.5742 23.7562C18.35 23.6633 17.9385 23.4929 17.4439 23.6194C17.5494 23.1848 17.7323 22.6941 17.9306 22.1627L18.0138 21.9392C18.1074 21.6873 18.225 21.4262 18.3492 21.1498C19.0209 19.6577 19.9408 17.6139 18.9424 12.9968C18.5685 11.2674 17.3197 10.4229 15.4267 10.6191C14.2918 10.7365 13.2535 11.1944 12.7356 11.4569C12.6242 11.5133 12.5224 11.5679 12.4273 11.6209C12.5718 9.87846 13.1179 6.6221 15.1606 4.5618C16.4468 3.26483 18.1597 2.62422 20.2467 2.65877C24.3588 2.72604 26.9958 4.83634 28.4839 6.59498C29.7664 8.11028 30.4608 9.6368 30.7379 10.4601C28.6538 10.2482 27.2364 10.6595 26.5179 11.6868C24.9547 13.9213 27.373 18.2583 28.5353 20.3427C28.7485 20.7247 28.9324 21.0548 28.9903 21.1951C29.3688 22.1124 29.8588 22.7248 30.2165 23.1718C30.3262 23.3088 30.4326 23.4416 30.5135 23.5577C29.8823 23.7397 28.7485 24.1601 28.8518 26.2618C28.7685 27.3163 28.1759 32.2536 27.8748 33.998C27.4774 36.3026 26.6294 37.1607 24.245 37.6721ZM34.5638 25.8638C33.9183 26.1633 32.8382 26.388 31.8121 26.4363C30.6788 26.4894 30.1018 26.3094 29.9661 26.1986C29.9024 24.8889 30.3898 24.7521 30.9058 24.6073C30.9868 24.5845 31.0659 24.5623 31.1423 24.5356C31.1896 24.5743 31.2418 24.6125 31.2986 24.6501C32.2095 25.2513 33.8342 25.3162 36.128 24.8427L36.1532 24.8377C35.8438 25.127 35.3144 25.5151 34.5638 25.8638Z" fill="white"/>
</g>
<defs>
<clipPath id="clip0_2061_73">
<rect width="38.7879" height="40" fill="white"/>
</clipPath>
</defs>
</svg>
