<svg width="40" height="40" viewBox="0 0 40 40" fill="none" xmlns="http://www.w3.org/2000/svg">
<g clip-path="url(#clip0_2054_146)">
<path d="M7.08435 14.6875H38.2312V37.7094H7.08435V14.6875Z" fill="white"/>
<path d="M0.46875 19.9719V39.5032H39.5312V0.440674H0.46875V19.9719ZM31.9469 18.4094C32.8825 18.6265 33.7328 19.1159 34.3906 19.8157C34.7527 20.1927 35.0675 20.6125 35.3281 21.0657C35.3281 21.1157 33.6406 22.2563 32.6125 22.8938C32.575 22.9188 32.425 22.7563 32.2594 22.5094C32.0717 22.1856 31.805 21.9145 31.4842 21.7216C31.1635 21.5287 30.799 21.4203 30.425 21.4063C29.2406 21.325 28.4781 21.9469 28.4844 22.9688C28.4749 23.2232 28.5331 23.4755 28.6531 23.7C28.9125 24.2407 29.3969 24.5625 30.9156 25.2188C33.7125 26.4219 34.9094 27.2157 35.6531 28.3438C36.4844 29.5938 36.6688 31.6125 36.1063 33.1063C35.4813 34.7313 33.95 35.8344 31.7844 36.2C30.7953 36.3134 29.7959 36.3029 28.8094 36.1688C27.2974 35.9196 25.9046 35.1936 24.8344 34.0969C24.475 33.7 23.775 32.6657 23.8188 32.5907C23.9326 32.5057 24.0527 32.4294 24.1781 32.3625L25.625 31.5625L26.7469 30.9125L26.9812 31.2594C27.3769 31.8251 27.8803 32.3072 28.4625 32.6782C29.7125 33.3344 31.4187 33.2438 32.2625 32.4844C32.5458 32.2062 32.7225 31.8374 32.7619 31.4422C32.8013 31.0471 32.7009 30.6506 32.4781 30.3219C32.1656 29.8875 31.5406 29.5219 29.7937 28.7594C27.7781 27.8907 26.9094 27.3532 26.1156 26.4969C25.6203 25.9318 25.2544 25.2652 25.0437 24.5438C24.8867 23.7196 24.8635 22.8754 24.975 22.0438C25.3906 20.0969 26.85 18.7375 28.9812 18.3344C29.9683 18.2125 30.968 18.2399 31.9469 18.4157V18.4094ZM22.7781 20.0469V21.6469H17.7062V36.0938H14.1094V21.6438H9.025V20.0813C9.00905 19.5425 9.02157 19.0032 9.0625 18.4657C9.0875 18.4375 12.1875 18.4375 15.9375 18.4375H22.7594L22.7781 20.0469Z" fill="#007ACC"/>
</g>
<defs>
<clipPath id="clip0_2054_146">
<rect width="40" height="40" fill="white"/>
</clipPath>
</defs>
</svg>
